# xmcd
#
# Track frame offsets:
#	150
#	17493
#	34173
#	50753
#	62902
#	81819
#	98314
#	112770
#	127421
#	140028
#
# Disc length: 2087 seconds
#
# Revision: 0
# Processed by: cddbd v1.5.1PL0 Copyright (c) Steve Scherf et al.
# Submitted via: dBpowerAMP V4.0
#
DISCID=8408250a
DTITLE=Various Artist - Las 10 Mejores De Mejores 4
DYEAR=1900
DGENRE=
TTITLE0=Luto en mi alma
TTITLE1=Te juro que te amo
TTITLE2=Deja de llorar chiquilla
TTITLE3=dejenme llorar
TTITLE4=Es mjor decir adios
TTITLE5=Palabras tristes
TTITLE6=soy yo
TTITLE7=Presiento que voy a llorar
TTITLE8=Una noche como esta
TTITLE9=necesito una companyera
EXTD=
EXTT0=
EXTT1=
EXTT2=
EXTT3=
EXTT4=
EXTT5=
EXTT6=
EXTT7=
EXTT8=
EXTT9=
PLAYORDER=
